<?xml version="1.0" encoding="utf-8"?>
<!-- Generator: Adobe Illustrator 17.0.0, SVG Export Plug-In . SVG Version: 6.00 Build 0)  -->
<!DOCTYPE svg PUBLIC "-//W3C//DTD SVG 1.1//EN" "http://www.w3.org/Graphics/SVG/1.1/DTD/svg11.dtd">
<svg version="1.1" id="Capa_1" xmlns="http://www.w3.org/2000/svg" xmlns:xlink="http://www.w3.org/1999/xlink" x="0px" y="0px"
	 width="223px" height="178px" viewBox="0 0 223 178" enable-background="new 0 0 223 178" xml:space="preserve">
<path fill-rule="evenodd" clip-rule="evenodd" fill="#FF6600" d="M141.402,30.378l23.62,40.911
	c-4.01,6.093-8.294,11.392-12.809,15.926c-4.544,4.526-9.324,8.236-14.355,11.142c-12.818,7.4-25.873,9.311-39.217,5.736
	c-13.344-3.575-23.729-11.817-31.163-24.694c-7.514-13.017-9.446-26.245-5.775-39.697c3.221-11.908,10.165-21.52,20.805-28.822
	l10.471,18.136c-4.56,3.913-7.609,8.812-9.123,14.696c-2.036,7.911-0.864,15.661,3.517,23.249
	c4.61,7.983,10.769,13.117,18.461,15.413c7.691,2.295,15.305,1.254,22.853-3.104c1.743-1.006,3.416-2.182,5.027-3.509
	c1.6-1.346,3.18-2.865,4.789-4.561l-7.069-12.244l-15.968,9.219l-9.882-17.118L141.402,30.378z"/>

</svg>
