<?xml version="1.0" encoding="utf-8"?>
<!-- Generator: Adobe Illustrator 17.0.0, SVG Export Plug-In . SVG Version: 6.00 Build 0)  -->
<!DOCTYPE svg PUBLIC "-//W3C//DTD SVG 1.1//EN" "http://www.w3.org/Graphics/SVG/1.1/DTD/svg11.dtd">
<svg version="1.1" id="Capa_1" xmlns="http://www.w3.org/2000/svg" xmlns:xlink="http://www.w3.org/1999/xlink" x="0px" y="0px"
	 width="223px" height="178px" viewBox="0 0 223 178" enable-background="new 0 0 223 178" xml:space="preserve">
<path fill-rule="evenodd" clip-rule="evenodd" fill="#FF6600" d="M141.402,30.378l23.62,40.911
	c-4.01,6.093-8.294,11.392-12.809,15.926c-4.544,4.526-9.324,8.236-14.355,11.142c-12.818,7.4-25.873,9.311-39.217,5.736
	c-13.344-3.575-23.729-11.817-31.163-24.694c-7.514-13.017-9.446-26.245-5.775-39.697c3.221-11.908,10.165-21.52,20.805-28.822
	l10.471,18.136c-4.56,3.913-7.609,8.812-9.123,14.696c-2.036,7.911-0.864,15.661,3.517,23.249
	c4.61,7.983,10.769,13.117,18.461,15.413c7.691,2.295,15.305,1.254,22.853-3.104c1.743-1.006,3.416-2.182,5.027-3.509
	c1.6-1.346,3.18-2.865,4.789-4.561l-7.069-12.244l-15.968,9.219l-9.882-17.118L141.402,30.378z"/>
<rect x="18.256" y="114.971" fill-rule="evenodd" clip-rule="evenodd" fill="#4C4C4C" width="186.509" height="14.412"/>
<path fill-rule="evenodd" clip-rule="evenodd" fill="#4C4C4C" d="M41.834,150.024v12.776c-1.763,0.885-3.483,1.546-5.154,1.999
	c-1.676,0.445-3.297,0.667-4.869,0.667c-4.003,0-7.318-1.317-9.961-3.959c-2.642-2.641-3.959-5.977-3.959-9.999
	c0-4.065,1.336-7.424,4.015-10.078c2.379-2.369,5.328-3.683,8.837-3.943v5.657c-1.625,0.29-3.024,1.03-4.191,2.219
	c-1.546,1.578-2.32,3.552-2.32,5.921c0,2.494,0.749,4.53,2.24,6.107c1.491,1.577,3.415,2.363,5.772,2.363
	c0.545,0,1.095-0.05,1.652-0.142c0.557-0.099,1.133-0.242,1.739-0.421v-3.824h-4.987v-5.345H41.834L41.834,150.024z M47.031,164.614
	v-26.283h16.192v5.419H53.119v4.752h8.65v5.384h-8.65v5.196h10.245v5.532H47.031L47.031,164.614z M66.953,157.183
	c1.621,0.99,2.994,1.689,4.12,2.085c1.133,0.402,2.235,0.6,3.31,0.6c1.089,0,1.961-0.242,2.617-0.719
	c0.663-0.476,0.99-1.088,0.99-1.837c0-1.077-1.169-2.29-3.514-3.632c-0.378-0.217-0.668-0.384-0.873-0.508l-1.775-0.995
	c-1.726-0.978-3.007-2.085-3.842-3.316c-0.835-1.231-1.249-2.63-1.249-4.189c0-2.116,0.797-3.848,2.394-5.203
	c1.596-1.355,3.657-2.03,6.181-2.03c0.928,0,1.936,0.112,3.025,0.329c1.089,0.216,2.295,0.556,3.626,1.015v6.162
	c-1.268-0.798-2.469-1.411-3.607-1.85c-1.138-0.433-2.104-0.649-2.902-0.649c-0.885,0-1.578,0.192-2.085,0.568
	c-0.508,0.384-0.761,0.898-0.761,1.554c0,0.457,0.149,0.886,0.451,1.287c0.304,0.396,0.756,0.762,1.361,1.082l3.08,1.707
	c2.575,1.423,4.307,2.741,5.199,3.954c0.884,1.206,1.329,2.635,1.329,4.294c0,2.561-0.873,4.634-2.617,6.211
	c-1.75,1.578-4.065,2.363-6.953,2.363c-0.977,0-2.042-0.105-3.193-0.309c-1.144-0.204-2.406-0.526-3.785-0.958L66.953,157.183
	L66.953,157.183z M93.948,164.614v-20.789h-8.359v-5.494h22.954v5.494h-8.322v20.789H93.948L93.948,164.614z M111.617,164.614
	v-26.283h6.273v26.283H111.617L111.617,164.614z M128.841,151.473c0,2.283,0.669,4.195,2.005,5.736
	c1.337,1.54,2.982,2.314,4.938,2.314c1.968,0,3.62-0.767,4.95-2.301c1.33-1.535,1.992-3.453,1.992-5.748
	c0-2.308-0.662-4.232-1.992-5.772c-1.33-1.541-2.982-2.314-4.95-2.314c-1.955,0-3.601,0.774-4.938,2.314
	C129.51,147.241,128.841,149.165,128.841,151.473L128.841,151.473z M122.389,151.473c0-1.943,0.334-3.769,1.008-5.463
	c0.668-1.702,1.658-3.217,2.964-4.56c1.232-1.28,2.66-2.264,4.293-2.944c1.634-0.688,3.341-1.028,5.129-1.028
	c1.788,0,3.502,0.347,5.141,1.033c1.633,0.688,3.087,1.684,4.355,2.976c1.281,1.294,2.253,2.785,2.908,4.486
	c0.662,1.695,0.99,3.534,0.99,5.501c0,1.645-0.23,3.192-0.687,4.64c-0.464,1.448-1.144,2.772-2.048,3.972
	c-1.28,1.701-2.858,3.025-4.727,3.966c-1.862,0.946-3.842,1.416-5.933,1.416c-1.776,0-3.477-0.346-5.104-1.033
	c-1.621-0.686-3.062-1.682-4.319-2.976c-1.306-1.337-2.296-2.852-2.964-4.541C122.723,155.234,122.389,153.415,122.389,151.473
	L122.389,151.473z M153.559,164.614v-27.137h0.6l16.365,15.337v-14.483h5.785v27.278h-0.545l-16.42-15.331v14.336H153.559
	L153.559,164.614z M188.032,156.255h6.905l-3.402-8.228L188.032,156.255L188.032,156.255z M178.208,164.614l13.395-27.1h0.402
	l13.104,27.1h-6.564l-1.664-3.831h-10.66l-1.701,3.831H178.208z"/>
</svg>
